ISO-10303-21;
HEADER;
/* Generated by software containing ST-Developer
 * from STEP Tools, Inc. (www.steptools.com) 
 */

FILE_DESCRIPTION(
/* description */ (''),
/* implementation_level */ '2;1');

FILE_NAME(
/* name */ 'cnc part.step',
/* time_stamp */ '2025-08-03T13:23:45+05:30',
/* author */ (''),
/* organization */ (''),
/* preprocessor_version */ 'ST-DEVELOPER v20.1',
/* originating_system */ 'Autodesk Translation Framework v14.10.0.0',
/* authorisation */ '');

FILE_SCHEMA (('AUTOMOTIVE_DESIGN { 1 0 10303 214 3 1 1 }'));
ENDSEC;

DATA;
#10=MECHANICAL_DESIGN_GEOMETRIC_PRESENTATION_REPRESENTATION('',(#14,#15),
#109);
#11=SHAPE_REPRESENTATION_RELATIONSHIP('SRR','None',#116,#12);
#12=ADVANCED_BREP_SHAPE_REPRESENTATION('',(#16,#17),#108);
#13=SPHERICAL_SURFACE('',#74,2.5);
#14=STYLED_ITEM('',(#125),#16);
#15=STYLED_ITEM('',(#125),#17);
#16=MANIFOLD_SOLID_BREP('Body2',#54);
#17=MANIFOLD_SOLID_BREP('Body3',#55);
#18=PLANE('',#72);
#19=PLANE('',#73);
#20=FACE_OUTER_BOUND('',#24,.T.);
#21=FACE_OUTER_BOUND('',#25,.T.);
#22=FACE_OUTER_BOUND('',#26,.T.);
#23=FACE_OUTER_BOUND('',#27,.T.);
#24=EDGE_LOOP('',(#41,#42,#43,#44));
#25=EDGE_LOOP('',(#45));
#26=EDGE_LOOP('',(#46));
#27=EDGE_LOOP('',(#47,#48));
#28=LINE('',#98,#29);
#29=VECTOR('',#82,1.25);
#30=CIRCLE('',#70,1.25);
#31=CIRCLE('',#71,1.25);
#32=CIRCLE('',#75,2.5);
#33=VERTEX_POINT('',#95);
#34=VERTEX_POINT('',#97);
#35=VERTEX_POINT('',#103);
#36=VERTEX_POINT('',#104);
#37=EDGE_CURVE('',#33,#33,#30,.T.);
#38=EDGE_CURVE('',#33,#34,#28,.T.);
#39=EDGE_CURVE('',#34,#34,#31,.T.);
#40=EDGE_CURVE('',#35,#36,#32,.T.);
#41=ORIENTED_EDGE('',*,*,#37,.F.);
#42=ORIENTED_EDGE('',*,*,#38,.T.);
#43=ORIENTED_EDGE('',*,*,#39,.T.);
#44=ORIENTED_EDGE('',*,*,#38,.F.);
#45=ORIENTED_EDGE('',*,*,#37,.T.);
#46=ORIENTED_EDGE('',*,*,#39,.F.);
#47=ORIENTED_EDGE('',*,*,#40,.T.);
#48=ORIENTED_EDGE('',*,*,#40,.F.);
#49=CYLINDRICAL_SURFACE('',#69,1.25);
#50=ADVANCED_FACE('',(#20),#49,.T.);
#51=ADVANCED_FACE('',(#21),#18,.T.);
#52=ADVANCED_FACE('',(#22),#19,.F.);
#53=ADVANCED_FACE('',(#23),#13,.T.);
#54=CLOSED_SHELL('',(#50,#51,#52));
#55=CLOSED_SHELL('',(#53));
#56=DERIVED_UNIT_ELEMENT(#58,1.);
#57=DERIVED_UNIT_ELEMENT(#111,-3.);
#58=(
MASS_UNIT()
NAMED_UNIT(*)
SI_UNIT(.KILO.,.GRAM.)
);
#59=DERIVED_UNIT((#56,#57));
#60=MEASURE_REPRESENTATION_ITEM('density measure',
POSITIVE_RATIO_MEASURE(7850.),#59);
#61=PROPERTY_DEFINITION_REPRESENTATION(#66,#63);
#62=PROPERTY_DEFINITION_REPRESENTATION(#67,#64);
#63=REPRESENTATION('material name',(#65),#108);
#64=REPRESENTATION('density',(#60),#108);
#65=DESCRIPTIVE_REPRESENTATION_ITEM('Steel','Steel');
#66=PROPERTY_DEFINITION('material property','material name',#118);
#67=PROPERTY_DEFINITION('material property','density of part',#118);
#68=AXIS2_PLACEMENT_3D('',#93,#76,#77);
#69=AXIS2_PLACEMENT_3D('',#94,#78,#79);
#70=AXIS2_PLACEMENT_3D('',#96,#80,#81);
#71=AXIS2_PLACEMENT_3D('',#99,#83,#84);
#72=AXIS2_PLACEMENT_3D('',#100,#85,#86);
#73=AXIS2_PLACEMENT_3D('',#101,#87,#88);
#74=AXIS2_PLACEMENT_3D('',#102,#89,#90);
#75=AXIS2_PLACEMENT_3D('',#105,#91,#92);
#76=DIRECTION('axis',(0.,0.,1.));
#77=DIRECTION('refdir',(1.,0.,0.));
#78=DIRECTION('center_axis',(0.,0.,1.));
#79=DIRECTION('ref_axis',(1.,0.,0.));
#80=DIRECTION('center_axis',(0.,0.,1.));
#81=DIRECTION('ref_axis',(1.,0.,0.));
#82=DIRECTION('',(0.,0.,-1.));
#83=DIRECTION('center_axis',(0.,0.,1.));
#84=DIRECTION('ref_axis',(1.,0.,0.));
#85=DIRECTION('center_axis',(0.,0.,1.));
#86=DIRECTION('ref_axis',(1.,0.,0.));
#87=DIRECTION('center_axis',(0.,0.,1.));
#88=DIRECTION('ref_axis',(1.,0.,0.));
#89=DIRECTION('center_axis',(6.12357387019813E-17,0.,1.));
#90=DIRECTION('ref_axis',(1.,0.,0.));
#91=DIRECTION('center_axis',(0.,-1.,0.));
#92=DIRECTION('ref_axis',(-1.,0.,0.));
#93=CARTESIAN_POINT('',(0.,0.,0.));
#94=CARTESIAN_POINT('Origin',(0.00260313712150448,-22.1621715781558,33.4959616474075));
#95=CARTESIAN_POINT('',(-1.2473968628785,-22.1621715781558,43.4959616474075));
#96=CARTESIAN_POINT('Origin',(0.00260313712150448,-22.1621715781558,43.4959616474075));
#97=CARTESIAN_POINT('',(-1.2473968628785,-22.1621715781558,33.4959616474075));
#98=CARTESIAN_POINT('',(-1.2473968628785,-22.1621715781558,33.4959616474075));
#99=CARTESIAN_POINT('Origin',(0.00260313712150448,-22.1621715781558,33.4959616474075));
#100=CARTESIAN_POINT('Origin',(0.00260313712150448,-22.1621715781558,43.4959616474075));
#101=CARTESIAN_POINT('Origin',(0.00260313712150448,-22.1621715781558,33.4959616474075));
#102=CARTESIAN_POINT('Origin',(0.00260313712150448,-22.1621715781558,33.4959616474075));
#103=CARTESIAN_POINT('',(0.00260313712150432,-22.1621715781558,35.9959616474075));
#104=CARTESIAN_POINT('',(0.00260313712150432,-22.1621715781558,30.9959616474075));
#105=CARTESIAN_POINT('Origin',(0.00260313712150448,-22.1621715781558,33.4959616474075));
#106=UNCERTAINTY_MEASURE_WITH_UNIT(LENGTH_MEASURE(0.01),#110,
'DISTANCE_ACCURACY_VALUE',
'Maximum model space distance between geometric entities at asserted c
onnectivities');
#107=UNCERTAINTY_MEASURE_WITH_UNIT(LENGTH_MEASURE(0.01),#110,
'DISTANCE_ACCURACY_VALUE',
'Maximum model space distance between geometric entities at asserted c
onnectivities');
#108=(
GEOMETRIC_REPRESENTATION_CONTEXT(3)
GLOBAL_UNCERTAINTY_ASSIGNED_CONTEXT((#106))
GLOBAL_UNIT_ASSIGNED_CONTEXT((#110,#112,#113))
REPRESENTATION_CONTEXT('','3D')
);
#109=(
GEOMETRIC_REPRESENTATION_CONTEXT(3)
GLOBAL_UNCERTAINTY_ASSIGNED_CONTEXT((#107))
GLOBAL_UNIT_ASSIGNED_CONTEXT((#110,#112,#113))
REPRESENTATION_CONTEXT('','3D')
);
#110=(
LENGTH_UNIT()
NAMED_UNIT(*)
SI_UNIT(.MILLI.,.METRE.)
);
#111=(
LENGTH_UNIT()
NAMED_UNIT(*)
SI_UNIT($,.METRE.)
);
#112=(
NAMED_UNIT(*)
PLANE_ANGLE_UNIT()
SI_UNIT($,.RADIAN.)
);
#113=(
NAMED_UNIT(*)
SI_UNIT($,.STERADIAN.)
SOLID_ANGLE_UNIT()
);
#114=SHAPE_DEFINITION_REPRESENTATION(#115,#116);
#115=PRODUCT_DEFINITION_SHAPE('',$,#118);
#116=SHAPE_REPRESENTATION('',(#68),#108);
#117=PRODUCT_DEFINITION_CONTEXT('part definition',#122,'design');
#118=PRODUCT_DEFINITION('cnc part','cnc part v1',#119,#117);
#119=PRODUCT_DEFINITION_FORMATION('',$,#124);
#120=PRODUCT_RELATED_PRODUCT_CATEGORY('cnc part v1','cnc part v1',(#124));
#121=APPLICATION_PROTOCOL_DEFINITION('international standard',
'automotive_design',2009,#122);
#122=APPLICATION_CONTEXT(
'Core Data for Automotive Mechanical Design Process');
#123=PRODUCT_CONTEXT('part definition',#122,'mechanical');
#124=PRODUCT('cnc part','cnc part v1',$,(#123));
#125=PRESENTATION_STYLE_ASSIGNMENT((#126));
#126=SURFACE_STYLE_USAGE(.BOTH.,#127);
#127=SURFACE_SIDE_STYLE('',(#128));
#128=SURFACE_STYLE_FILL_AREA(#129);
#129=FILL_AREA_STYLE('Steel - Satin',(#130));
#130=FILL_AREA_STYLE_COLOUR('Steel - Satin',#131);
#131=COLOUR_RGB('Steel - Satin',0.627450980392157,0.627450980392157,0.627450980392157);
ENDSEC;
END-ISO-10303-21;
